<svg width="4501" height="4501" version="1.1" xmlns="http://www.w3.org/2000/svg" desc="Created with imagetracer.js version 1.2.6" ><path fill="rgb(0,0,0)" stroke="rgb(0,0,0)" stroke-width="1" opacity="0" d="M 0 0 L 4501 0 L 4501 4501 L 0 4501 L 0 0 Z M 2698 532 L 2688 537 L 2682 543 Q 2677 565 2668 585 L 2644 634 Q 2621 674 2590 707 Q 2557 742 2515 768 L 2467 794 L 2441 805 L 2409 816 Q 2402 820 2400 828 L 2400 832 L 2405 840 L 2411 845 L 2417 846 L 2451 858 L 2499 881 Q 2535 901 2565 928 Q 2609 967 2640 1020 L 2657 1052 L 2681 1114 L 2686 1123 L 2693 1127 L 2705 1126 Q 2710 1122 2713 1115 Q 2726 1069 2747 1032 Q 2768 993 2797 962 Q 2835 919 2885 888 L 2930 864 L 2960 852 L 2984 845 L 2990 842 L 2995 835 Q 2997 825 2993 821 L 2984 814 Q 2934 800 2895 777 Q 2857 755 2826 727 Q 2785 689 2755 641 L 2729 591 L 2712 542 L 2709 537 Q 2706 532 2698 532 Z M 1722 595 L 1721 596 L 1712 596 L 1689 600 L 1651 612 Q 1610 629 1581 657 Q 1546 689 1525 735 Q 1516 754 1511 777 L 1507 799 L 1506 824 L 1505 825 L 1507 862 L 1511 884 L 1519 911 Q 1535 953 1562 984 Q 1595 1022 1645 1045 L 1686 1059 L 1707 1063 L 1726 1064 L 1727 1065 L 1755 1065 L 1756 1064 L 1775 1063 L 1814 1054 Q 1861 1038 1895 1008 Q 1932 976 1954 930 Q 1964 909 1970 884 L 1974 862 L 1975 837 L 1976 836 L 1975 808 L 1974 807 L 1973 792 L 1968 769 L 1959 742 Q 1942 700 1913 670 Q 1878 631 1826 610 L 1805 603 L 1777 597 L 1761 596 L 1760 595 L 1722 595 Z M 1547 1271 Q 1533 1273 1525 1280 Q 1509 1291 1505 1314 L 1505 1745 L 1508 1757 L 1515 1769 Q 1525 1782 1544 1786 L 2053 1786 L 2053 2251 L 2060 2265 Q 2067 2272 2079 2275 L 2092 2275 L 2103 2270 L 2111 2262 L 2131 2234 L 2447 1788 L 2449 1786 L 2958 1786 Q 2970 1783 2979 1776 L 2991 1761 L 2994 1753 L 2996 1742 L 2996 1317 L 2995 1316 L 2994 1305 L 2986 1290 Q 2975 1275 2954 1271 L 2919 1271 L 2918 1272 L 2893 1272 L 2892 1273 L 2862 1274 L 2861 1275 L 2830 1277 L 2829 1278 L 2813 1279 L 2784 1284 L 2778 1284 L 2729 1293 L 2670 1307 L 2598 1329 Q 2511 1359 2437 1400 Q 2349 1448 2274 1509 L 2257 1515 L 2240 1514 L 2226 1508 Q 2150 1446 2061 1398 Q 1992 1361 1915 1333 L 1870 1318 L 1828 1306 L 1782 1295 L 1736 1286 L 1697 1281 L 1696 1280 L 1681 1279 L 1680 1278 L 1652 1276 L 1651 1275 L 1641 1275 L 1640 1274 L 1610 1273 L 1609 1272 L 1584 1272 L 1583 1271 L 1547 1271 Z M 1196 2624 L 1196 2948 Q 1168 2926 1132 2913 L 1103 2905 L 1086 2902 L 1079 2902 L 1078 2901 L 1069 2901 L 1068 2900 L 1021 2900 L 1020 2901 L 1010 2901 L 1009 2902 L 1002 2902 L 979 2906 L 960 2911 Q 901 2930 861 2966 Q 814 3007 787 3067 Q 776 3091 769 3121 L 765 3141 L 763 3163 L 762 3164 L 762 3174 L 761 3175 L 761 3232 L 762 3233 L 762 3243 L 763 3244 L 765 3266 L 769 3286 L 775 3308 Q 796 3370 835 3415 Q 873 3457 928 3483 L 957 3494 L 980 3500 L 1003 3504 L 1010 3504 L 1011 3505 L 1022 3505 L 1023 3506 L 1066 3506 L 1067 3505 L 1076 3505 L 1077 3504 L 1096 3502 L 1120 3496 Q 1164 3481 1197 3455 L 1200 3453 L 1200 3494 L 1201 3494 L 1380 3494 L 1380 2625 L 1380 2624 L 1196 2624 Z M 2154 2624 L 2154 3494 L 2155 3494 L 2338 3494 L 2338 2625 L 2338 2624 L 2154 2624 Z M 81 2648 L 81 3494 L 689 3494 L 689 3331 L 270 3331 L 270 3141 L 647 3141 L 647 2984 L 270 2984 L 270 2810 L 683 2810 L 683 2649 L 683 2648 L 81 2648 Z M 2688 2900 L 2687 2901 L 2669 2902 L 2647 2906 L 2625 2912 L 2606 2919 Q 2559 2939 2526 2971 Q 2483 3010 2458 3067 Q 2447 3091 2440 3121 L 2436 3141 L 2434 3163 L 2433 3164 L 2433 3174 L 2432 3175 L 2432 3232 L 2433 3233 L 2433 3243 L 2434 3244 L 2436 3266 L 2440 3286 L 2446 3308 Q 2469 3376 2513 3423 Q 2547 3459 2595 3482 L 2632 3496 L 2658 3502 L 2677 3504 L 2678 3505 L 2689 3505 L 2690 3506 L 2732 3506 L 2733 3505 L 2743 3505 L 2744 3504 L 2751 3504 L 2768 3501 L 2787 3496 Q 2833 3481 2866 3453 L 2871 3449 L 2871 3494 L 2872 3494 L 3051 3494 L 3051 2913 L 3051 2912 L 2871 2912 L 2871 2959 Q 2836 2925 2784 2909 L 2758 2903 L 2745 2902 L 2744 2901 L 2735 2901 L 2734 2900 L 2688 2900 Z M 3504 2900 L 3503 2901 L 3486 2902 L 3464 2906 L 3429 2917 Q 3392 2932 3366 2956 L 3364 2956 L 3364 2913 L 3364 2912 L 3180 2912 L 3180 3494 L 3181 3494 L 3364 3494 L 3364 3155 L 3365 3154 L 3365 3145 L 3367 3135 L 3370 3125 Q 3376 3107 3387 3095 Q 3397 3083 3410 3075 Q 3421 3068 3436 3064 L 3452 3061 L 3480 3061 L 3495 3064 Q 3514 3069 3529 3081 Q 3542 3092 3551 3107 L 3561 3130 L 3565 3153 L 3565 3494 L 3749 3494 L 3749 3112 L 3748 3111 L 3748 3098 L 3742 3064 Q 3736 3043 3728 3026 Q 3713 2994 3690 2970 Q 3657 2933 3608 2913 L 3577 2904 L 3559 2902 L 3558 2901 L 3550 2901 L 3549 2900 L 3504 2900 Z M 4081 2900 L 4080 2901 L 4070 2901 L 4069 2902 L 4062 2902 L 4039 2906 Q 4015 2911 3995 2920 Q 3952 2939 3920 2968 Q 3878 3005 3853 3060 Q 3841 3085 3834 3117 L 3830 3139 L 3829 3155 L 3828 3156 L 3828 3170 L 3827 3171 L 3827 3205 L 3828 3206 L 3828 3219 L 3829 3220 L 3830 3236 L 3834 3258 L 3844 3293 Q 3865 3350 3903 3391 Q 3938 3429 3989 3453 L 4024 3466 L 4040 3470 L 4063 3474 L 4070 3474 L 4071 3475 L 4081 3475 L 4082 3476 L 4126 3476 L 4127 3475 L 4137 3475 L 4177 3467 Q 4220 3454 4252 3429 L 4252 3481 L 4251 3482 L 4251 3489 L 4249 3499 Q 4242 3529 4224 3549 Q 4206 3568 4181 3579 L 4152 3588 L 4134 3590 L 4133 3591 L 4123 3591 L 4122 3592 L 4079 3591 L 4078 3590 L 4064 3589 L 4038 3583 Q 3994 3569 3965 3540 L 3943 3517 L 3830 3629 L 3832 3634 L 3848 3654 Q 3889 3699 3949 3725 L 3984 3738 L 4006 3744 L 4036 3750 L 4057 3752 L 4058 3753 L 4068 3753 L 4069 3754 L 4081 3754 L 4082 3755 L 4141 3755 L 4142 3754 L 4154 3754 L 4155 3753 L 4163 3753 L 4164 3752 L 4171 3752 L 4172 3751 L 4190 3749 L 4230 3739 Q 4295 3718 4342 3677 Q 4382 3643 4407 3594 Q 4418 3572 4425 3548 L 4434 3503 L 4435 3482 L 4436 3481 L 4436 2912 L 4257 2912 L 4256 2913 L 4256 2949 Q 4224 2923 4179 2909 L 4158 2904 L 4139 2902 L 4138 2901 L 4129 2901 L 4128 2900 L 4081 2900 Z M 1495 2912 L 1495 3267 L 1496 3268 L 1497 3289 L 1505 3328 L 1515 3356 Q 1533 3396 1562 3427 Q 1595 3461 1641 3482 L 1663 3491 L 1690 3499 L 1716 3504 L 1730 3505 L 1731 3506 L 1742 3506 L 1743 3507 L 1795 3507 L 1796 3506 L 1807 3506 L 1808 3505 L 1815 3505 L 1816 3504 L 1834 3502 L 1859 3496 Q 1916 3478 1957 3443 Q 1997 3407 2021 3355 L 2030 3330 L 2036 3305 L 2038 3286 L 2039 3285 L 2039 3276 L 2040 3275 L 2040 3256 L 2041 3255 L 2041 2912 L 1857 2912 L 1857 3256 L 1856 3257 L 1856 3267 L 1854 3278 L 1849 3294 Q 1843 3307 1834 3318 Q 1822 3331 1805 3338 L 1792 3342 L 1780 3343 L 1779 3344 L 1758 3344 L 1741 3341 Q 1719 3335 1706 3322 Q 1695 3313 1689 3300 L 1683 3284 L 1679 3262 L 1679 2912 L 1495 2912 Z " /><path fill="rgb(0,0,0)" stroke="rgb(0,0,0)" stroke-width="1" opacity="0" d="M 4123.5 3061 L 4154.5 3061 L 4155.5 3062 L 4162.5 3062 L 4172.5 3064 L 4188.5 3069 Q 4216.9 3080.6 4235 3102.5 Q 4249.4 3119.6 4257 3143.5 L 4261 3159.5 L 4262 3173.5 L 4263 3174.5 L 4263 3200.5 L 4258 3227.5 L 4250 3248.5 Q 4239.3 3269.3 4222.5 3284 Q 4205.6 3299.1 4181.5 3307 L 4159.5 3312 L 4128.5 3313 L 4127.5 3312 L 4118.5 3312 L 4107.5 3310 L 4087.5 3304 Q 4059.8 3292.2 4042 3270.5 Q 4027.2 3252.3 4019 3227.5 L 4014 3204.5 L 4013 3179.5 L 4014 3178.5 L 4014 3168.5 L 4017 3152.5 L 4026 3127.5 Q 4036.1 3107.6 4051.5 3093 Q 4064.3 3081.3 4080.5 3073 L 4098.5 3066 L 4123.5 3061 Z " /><path fill="rgb(0,0,0)" stroke="rgb(0,0,0)" stroke-width="1" opacity="0" d="M 1074.5 3065 L 1102.5 3067 L 1127.5 3074 Q 1154.6 3085.3 1173 3105.5 Q 1192.6 3126.9 1202 3158.5 L 1207 3186.5 L 1207 3218.5 L 1202 3246.5 L 1194 3268.5 Q 1182.9 3291.4 1165.5 3308 Q 1145.8 3327.3 1115.5 3336 L 1093.5 3340 L 1061.5 3340 L 1037.5 3335 L 1015.5 3326 Q 993.5 3314 978 3295.5 Q 959.4 3274.1 951 3242.5 L 947 3219.5 L 947 3186.5 L 952 3160.5 L 959 3141.5 L 969 3123.5 L 986 3102 L 1004.5 3087 L 1026.5 3075 L 1044.5 3069 L 1061.5 3066 L 1073.5 3066 L 1074.5 3065 Z " /><path fill="rgb(0,0,0)" stroke="rgb(0,0,0)" stroke-width="1" opacity="0" d="M 2745.5 3065 L 2773.5 3067 L 2796.5 3073 Q 2824.5 3083.5 2843 3103.5 Q 2863.6 3125.4 2873 3158.5 L 2878 3186.5 L 2878 3218.5 L 2877 3219.5 L 2876 3233.5 L 2871 3253.5 L 2861 3276.5 Q 2848.5 3298.5 2829.5 3314 Q 2813 3328 2789.5 3335 L 2764.5 3340 L 2732.5 3340 L 2708.5 3335 L 2686.5 3326 Q 2664.5 3314 2649 3295.5 Q 2630.4 3274.1 2622 3242.5 L 2618 3219.5 L 2618 3186.5 L 2623 3159.5 L 2630 3140.5 Q 2641 3117 2658.5 3100 Q 2674.5 3084.5 2696.5 3075 L 2719.5 3068 L 2730.5 3067 L 2731.5 3066 L 2744.5 3066 L 2745.5 3065 Z " /><path fill="rgb(11,76,157)" stroke="rgb(11,76,157)" stroke-width="1" opacity="0.996078431372549" d="M 2697.5 532 Q 2705.8 531.8 2709 536.5 L 2712 541.5 L 2729 590.5 L 2755 640.5 Q 2784.6 689.4 2825.5 727 Q 2856.6 755.4 2894.5 777 Q 2934.3 800.2 2983.5 814 L 2993 820.5 Q 2996.7 824.8 2995 834.5 L 2989.5 842 L 2983.5 845 L 2959.5 852 L 2929.5 864 L 2884.5 888 Q 2834.9 918.9 2797 961.5 Q 2768.5 993 2747 1031.5 Q 2725.7 1068.7 2713 1114.5 Q 2710.4 1121.9 2704.5 1126 L 2692.5 1127 L 2686 1122.5 L 2681 1113.5 L 2657 1051.5 L 2640 1019.5 Q 2608.6 967.4 2564.5 928 Q 2534.6 901.4 2498.5 881 L 2450.5 858 L 2416.5 846 L 2410.5 845 L 2405 839.5 L 2400 831.5 L 2400 827.5 Q 2402.1 819.6 2408.5 816 L 2440.5 805 L 2466.5 794 L 2514.5 768 Q 2556.6 741.6 2590 706.5 Q 2620.9 673.9 2644 633.5 L 2668 584.5 Q 2676.5 565 2682 542.5 L 2687.5 537 L 2697.5 532 Z " /><path fill="rgb(11,76,157)" stroke="rgb(11,76,157)" stroke-width="1" opacity="0.996078431372549" d="M 1721.5 595 L 1759.5 595 L 1760.5 596 L 1776.5 597 L 1804.5 603 L 1825.5 610 Q 1877.7 631.3 1913 669.5 Q 1941.7 699.8 1959 741.5 L 1968 768.5 L 1973 791.5 L 1974 806.5 L 1975 807.5 L 1976 835.5 L 1975 836.5 L 1974 861.5 L 1970 883.5 Q 1964.1 908.6 1954 929.5 Q 1931.6 976.1 1894.5 1008 Q 1860.8 1037.8 1813.5 1054 L 1774.5 1063 L 1755.5 1064 L 1754.5 1065 L 1726.5 1065 L 1725.5 1064 L 1706.5 1063 L 1685.5 1059 L 1644.5 1045 Q 1595.1 1022.4 1562 983.5 Q 1535 952.5 1519 910.5 L 1511 883.5 L 1507 861.5 L 1505 824.5 L 1506 823.5 L 1507 798.5 L 1511 776.5 Q 1516.3 753.8 1525 734.5 Q 1545.8 688.8 1580.5 657 Q 1610.3 629.3 1650.5 612 L 1688.5 600 L 1711.5 596 L 1720.5 596 L 1721.5 595 Z " /><path fill="rgb(11,76,157)" stroke="rgb(11,76,157)" stroke-width="1" opacity="0.996078431372549" d="M 1546.5 1271 L 1582.5 1271 L 1583.5 1272 L 1608.5 1272 L 1609.5 1273 L 1639.5 1274 L 1640.5 1275 L 1650.5 1275 L 1651.5 1276 L 1679.5 1278 L 1680.5 1279 L 1695.5 1280 L 1696.5 1281 L 1735.5 1286 L 1781.5 1295 L 1827.5 1306 L 1869.5 1318 L 1914.5 1333 Q 1992 1361 2060.5 1398 Q 2149.9 1446.1 2225.5 1508 L 2239.5 1514 L 2256.5 1515 L 2273.5 1509 Q 2348.6 1448.1 2436.5 1400 Q 2511.5 1359 2597.5 1329 L 2669.5 1307 L 2728.5 1293 L 2777.5 1284 L 2783.5 1284 L 2812.5 1279 L 2828.5 1278 L 2829.5 1277 L 2860.5 1275 L 2861.5 1274 L 2891.5 1273 L 2892.5 1272 L 2917.5 1272 L 2918.5 1271 L 2953.5 1271 Q 2975.4 1274.6 2986 1289.5 L 2994 1304.5 L 2995 1315.5 L 2996 1316.5 L 2996 1741.5 L 2994 1752.5 L 2991 1760.5 L 2978.5 1776 Q 2970.2 1783.2 2957.5 1786 L 2448.5 1786 L 2447 1787.5 L 2131 2233.5 L 2111 2261.5 L 2102.5 2270 L 2091.5 2275 L 2078.5 2275 Q 2066.9 2272.1 2060 2264.5 L 2053 2250.5 L 2053 1786 L 1543.5 1786 Q 1524.7 1781.8 1515 1768.5 L 1508 1756.5 L 1505 1744.5 L 1505 1313.5 Q 1508.9 1290.9 1524.5 1280 Q 1533.4 1273.4 1546.5 1271 Z " /><path fill="rgb(11,76,157)" stroke="rgb(11,76,157)" stroke-width="1" opacity="0.996078431372549" d="M 1196 2624 L 1379.5 2624 L 1380 2624.5 L 1380 3494 L 1200.5 3494 L 1200 3493.5 L 1200 3452.5 L 1196.5 3455 Q 1163.8 3481.3 1119.5 3496 L 1095.5 3502 L 1076.5 3504 L 1075.5 3505 L 1066.5 3505 L 1065.5 3506 L 1022.5 3506 L 1021.5 3505 L 1010.5 3505 L 1009.5 3504 L 1002.5 3504 L 979.5 3500 L 956.5 3494 L 927.5 3483 Q 872.6 3457.4 835 3414.5 Q 795.6 3370.4 775 3307.5 L 769 3285.5 L 765 3265.5 L 763 3243.5 L 762 3242.5 L 762 3232.5 L 761 3231.5 L 761 3174.5 L 762 3173.5 L 762 3163.5 L 763 3162.5 L 765 3140.5 L 769 3120.5 Q 775.9 3091.4 787 3066.5 Q 814.1 3006.6 860.5 2966 Q 901.1 2929.6 959.5 2911 L 978.5 2906 L 1001.5 2902 L 1008.5 2902 L 1009.5 2901 L 1019.5 2901 L 1020.5 2900 L 1067.5 2900 L 1068.5 2901 L 1077.5 2901 L 1078.5 2902 L 1085.5 2902 L 1102.5 2905 L 1131.5 2913 Q 1168 2926 1195.5 2948 L 1196 2624 Z M 1075 3065 L 1074 3066 L 1062 3066 L 1045 3069 L 1027 3075 L 1005 3087 L 986 3102 L 969 3124 L 959 3142 L 952 3161 L 947 3187 L 947 3220 L 951 3243 Q 959 3274 978 3296 Q 994 3314 1016 3326 L 1038 3335 L 1062 3340 L 1094 3340 L 1116 3336 Q 1146 3327 1166 3308 Q 1183 3291 1194 3269 L 1202 3247 L 1207 3219 L 1207 3187 L 1202 3159 Q 1193 3127 1173 3106 Q 1155 3085 1128 3074 L 1103 3067 L 1075 3065 Z " /><path fill="rgb(11,76,157)" stroke="rgb(11,76,157)" stroke-width="1" opacity="0.996078431372549" d="M 2154 2624 L 2337.5 2624 L 2338 2624.5 L 2338 3494 L 2154.5 3494 L 2154 3493.5 L 2154 2624 Z " /><path fill="rgb(11,76,157)" stroke="rgb(11,76,157)" stroke-width="1" opacity="0.996078431372549" d="M 81 2648 L 682.5 2648 L 683 2648.5 L 683 2810 L 270 2810 L 270 2984 L 647 2984 L 647 3141 L 270 3141 L 270 3331 L 689 3331 L 689 3494 L 81 3494 L 81 2648 Z " /><path fill="rgb(11,76,157)" stroke="rgb(11,76,157)" stroke-width="1" opacity="0.996078431372549" d="M 2687.5 2900 L 2733.5 2900 L 2734.5 2901 L 2743.5 2901 L 2744.5 2902 L 2757.5 2903 L 2783.5 2909 Q 2835.9 2925.1 2870.5 2959 L 2871 2912 L 3050.5 2912 L 3051 2912.5 L 3051 3494 L 2871.5 3494 L 2871 3493.5 L 2871 3448.5 L 2865.5 3453 Q 2832.9 3481.4 2786.5 3496 L 2767.5 3501 L 2750.5 3504 L 2743.5 3504 L 2742.5 3505 L 2732.5 3505 L 2731.5 3506 L 2689.5 3506 L 2688.5 3505 L 2677.5 3505 L 2676.5 3504 L 2657.5 3502 L 2631.5 3496 L 2594.5 3482 Q 2547.2 3458.8 2513 3422.5 Q 2468.7 3375.8 2446 3307.5 L 2440 3285.5 L 2436 3265.5 L 2434 3243.5 L 2433 3242.5 L 2433 3232.5 L 2432 3231.5 L 2432 3174.5 L 2433 3173.5 L 2433 3163.5 L 2434 3162.5 L 2436 3140.5 L 2440 3120.5 Q 2446.9 3091.4 2458 3066.5 Q 2483.3 3010.3 2525.5 2971 Q 2559.4 2938.9 2605.5 2919 L 2624.5 2912 L 2646.5 2906 L 2668.5 2902 L 2686.5 2901 L 2687.5 2900 Z M 2746 3065 L 2745 3066 L 2732 3066 L 2731 3067 L 2720 3068 L 2697 3075 Q 2674 3084 2659 3100 Q 2641 3117 2630 3141 L 2623 3160 L 2618 3187 L 2618 3220 L 2622 3243 Q 2630 3274 2649 3296 Q 2665 3314 2687 3326 L 2709 3335 L 2733 3340 L 2765 3340 L 2790 3335 Q 2813 3328 2830 3314 Q 2848 3298 2861 3277 L 2871 3254 L 2876 3234 L 2877 3220 L 2878 3219 L 2878 3187 L 2873 3159 Q 2864 3125 2843 3104 Q 2824 3084 2797 3073 L 2774 3067 L 2746 3065 Z " /><path fill="rgb(11,76,157)" stroke="rgb(11,76,157)" stroke-width="1" opacity="0.996078431372549" d="M 3503.5 2900 L 3548.5 2900 L 3549.5 2901 L 3557.5 2901 L 3558.5 2902 L 3576.5 2904 L 3607.5 2913 Q 3656.9 2933.1 3690 2969.5 Q 3712.6 2993.9 3728 3025.5 Q 3736.5 3043 3742 3063.5 L 3748 3097.5 L 3748 3110.5 L 3749 3111.5 L 3749 3494 L 3565 3494 L 3565 3152.5 L 3561 3129.5 L 3551 3106.5 Q 3541.9 3091.6 3528.5 3081 Q 3514.5 3069.5 3494.5 3064 L 3479.5 3061 L 3451.5 3061 L 3435.5 3064 Q 3421 3068 3409.5 3075 Q 3396.6 3083.1 3387 3094.5 Q 3376.4 3107.4 3370 3124.5 L 3367 3134.5 L 3365 3144.5 L 3365 3153.5 L 3364 3154.5 L 3364 3494 L 3180.5 3494 L 3180 3493.5 L 3180 2912 L 3363.5 2912 L 3364 2912.5 L 3364 2955.5 L 3365.5 2956 Q 3392 2931.5 3428.5 2917 L 3463.5 2906 L 3485.5 2902 L 3502.5 2901 L 3503.5 2900 Z " /><path fill="rgb(11,76,157)" stroke="rgb(11,76,157)" stroke-width="1" opacity="0.996078431372549" d="M 4080.5 2900 L 4127.5 2900 L 4128.5 2901 L 4137.5 2901 L 4138.5 2902 L 4157.5 2904 L 4178.5 2909 Q 4223.9 2922.9 4256 2949 L 4256 2912.5 L 4256.5 2912 L 4436 2912 L 4436 3480.5 L 4435 3481.5 L 4434 3502.5 L 4425 3547.5 Q 4417.8 3572.3 4407 3593.5 Q 4381.5 3642.5 4341.5 3677 Q 4295.1 3717.6 4229.5 3739 L 4189.5 3749 L 4171.5 3751 L 4170.5 3752 L 4163.5 3752 L 4162.5 3753 L 4154.5 3753 L 4153.5 3754 L 4141.5 3754 L 4140.5 3755 L 4081.5 3755 L 4080.5 3754 L 4068.5 3754 L 4067.5 3753 L 4057.5 3753 L 4056.5 3752 L 4035.5 3750 L 4005.5 3744 L 3983.5 3738 L 3948.5 3725 Q 3888.6 3698.9 3848 3653.5 L 3832 3633.5 L 3830 3628.5 L 3942.5 3517 L 3964.5 3540 Q 3993.9 3568.6 4037.5 3583 L 4063.5 3589 L 4077.5 3590 L 4078.5 3591 L 4121.5 3592 L 4122.5 3591 L 4132.5 3591 L 4133.5 3590 L 4151.5 3588 L 4180.5 3579 Q 4206.4 3567.9 4224 3548.5 Q 4241.9 3528.9 4249 3498.5 L 4251 3488.5 L 4251 3481.5 L 4252 3480.5 L 4252 3429 Q 4220.4 3453.5 4176.5 3467 L 4136.5 3475 L 4126.5 3475 L 4125.5 3476 L 4081.5 3476 L 4080.5 3475 L 4070.5 3475 L 4069.5 3474 L 4062.5 3474 L 4039.5 3470 L 4023.5 3466 L 3988.5 3453 Q 3938.3 3429.2 3903 3390.5 Q 3865.4 3349.6 3844 3292.5 L 3834 3257.5 L 3830 3235.5 L 3829 3219.5 L 3828 3218.5 L 3828 3205.5 L 3827 3204.5 L 3827 3170.5 L 3828 3169.5 L 3828 3155.5 L 3829 3154.5 L 3830 3138.5 L 3834 3116.5 Q 3840.9 3085.4 3853 3059.5 Q 3877.9 3005.4 3919.5 2968 Q 3951.5 2938.5 3994.5 2920 Q 4014.9 2911.4 4038.5 2906 L 4061.5 2902 L 4068.5 2902 L 4069.5 2901 L 4079.5 2901 L 4080.5 2900 Z M 4124 3061 L 4099 3066 L 4081 3073 Q 4064 3081 4052 3093 Q 4036 3108 4026 3128 L 4017 3153 L 4014 3169 L 4014 3179 L 4013 3180 L 4014 3205 L 4019 3228 Q 4027 3252 4042 3271 Q 4060 3292 4088 3304 L 4108 3310 L 4119 3312 L 4128 3312 L 4129 3313 L 4160 3312 L 4182 3307 Q 4206 3299 4223 3284 Q 4239 3269 4250 3249 L 4258 3228 L 4263 3201 L 4263 3175 L 4262 3174 L 4261 3160 L 4257 3144 Q 4249 3120 4235 3103 Q 4217 3081 4189 3069 L 4173 3064 L 4163 3062 L 4156 3062 L 4155 3061 L 4124 3061 Z " /><path fill="rgb(11,76,157)" stroke="rgb(11,76,157)" stroke-width="1" opacity="0.996078431372549" d="M 1495 2912 L 1679 2912 L 1679 3261.5 L 1683 3283.5 L 1689 3299.5 Q 1695.5 3312.5 1705.5 3322 Q 1719.3 3335.2 1740.5 3341 L 1757.5 3344 L 1778.5 3344 L 1779.5 3343 L 1791.5 3342 L 1804.5 3338 Q 1822.3 3330.8 1834 3317.5 Q 1843.4 3307.4 1849 3293.5 L 1854 3277.5 L 1856 3266.5 L 1856 3256.5 L 1857 3255.5 L 1857 2912 L 2041 2912 L 2041 3254.5 L 2040 3255.5 L 2040 3274.5 L 2039 3275.5 L 2039 3284.5 L 2038 3285.5 L 2036 3304.5 L 2030 3329.5 L 2021 3354.5 Q 1997.5 3407.5 1956.5 3443 Q 1916.3 3478.3 1858.5 3496 L 1833.5 3502 L 1815.5 3504 L 1814.5 3505 L 1807.5 3505 L 1806.5 3506 L 1795.5 3506 L 1794.5 3507 L 1742.5 3507 L 1741.5 3506 L 1730.5 3506 L 1729.5 3505 L 1715.5 3504 L 1689.5 3499 L 1662.5 3491 L 1640.5 3482 Q 1594.7 3460.8 1562 3426.5 Q 1533.1 3396.4 1515 3355.5 L 1505 3327.5 L 1497 3288.5 L 1496 3267.5 L 1495 3266.5 L 1495 2912 Z " /></svg>